<svg width="196" height="28" viewBox="0 0 196 28" fill="none" xmlns="http://www.w3.org/2000/svg">
<g filter="url(#filter0_bddd_108_287)">
<path d="M17.344 10.336H20.896V17.152C19.984 17.84 18.928 18.368 17.728 18.736C16.528 19.104 15.32 19.288 14.104 19.288C12.36 19.288 10.792 18.92 9.4 18.184C8.008 17.432 6.912 16.4 6.112 15.088C5.328 13.76 4.936 12.264 4.936 10.6C4.936 8.936 5.328 7.448 6.112 6.136C6.912 4.808 8.016 3.776 9.424 3.04C10.832 2.288 12.416 1.912 14.176 1.912C15.648 1.912 16.984 2.16 18.184 2.656C19.384 3.152 20.392 3.872 21.208 4.816L18.712 7.12C17.512 5.856 16.064 5.224 14.368 5.224C13.296 5.224 12.344 5.448 11.512 5.896C10.68 6.344 10.032 6.976 9.568 7.792C9.104 8.608 8.872 9.544 8.872 10.6C8.872 11.64 9.104 12.568 9.568 13.384C10.032 14.2 10.672 14.84 11.488 15.304C12.32 15.752 13.264 15.976 14.32 15.976C15.44 15.976 16.448 15.736 17.344 15.256V10.336ZM36.5316 12.592C36.5316 12.64 36.5076 12.976 36.4596 13.6H26.6916C26.8676 14.4 27.2836 15.032 27.9396 15.496C28.5956 15.96 29.4116 16.192 30.3876 16.192C31.0596 16.192 31.6516 16.096 32.1636 15.904C32.6916 15.696 33.1796 15.376 33.6276 14.944L35.6196 17.104C34.4036 18.496 32.6276 19.192 30.2916 19.192C28.8356 19.192 27.5476 18.912 26.4276 18.352C25.3076 17.776 24.4436 16.984 23.8356 15.976C23.2276 14.968 22.9236 13.824 22.9236 12.544C22.9236 11.28 23.2196 10.144 23.8116 9.136C24.4196 8.112 25.2436 7.32 26.2836 6.76C27.3396 6.184 28.5156 5.896 29.8116 5.896C31.0756 5.896 32.2196 6.168 33.2436 6.712C34.2676 7.256 35.0676 8.04 35.6436 9.064C36.2356 10.072 36.5316 11.248 36.5316 12.592ZM29.8356 8.728C28.9876 8.728 28.2756 8.968 27.6996 9.448C27.1236 9.928 26.7716 10.584 26.6436 11.416H33.0036C32.8756 10.6 32.5236 9.952 31.9476 9.472C31.3716 8.976 30.6676 8.728 29.8356 8.728ZM46.9922 18.376C46.6242 18.648 46.1682 18.856 45.6242 19C45.0962 19.128 44.5362 19.192 43.9442 19.192C42.4082 19.192 41.2162 18.8 40.3682 18.016C39.5362 17.232 39.1202 16.08 39.1202 14.56V9.256H37.1282V6.376H39.1202V3.232H42.8642V6.376H46.0802V9.256H42.8642V14.512C42.8642 15.056 43.0002 15.48 43.2722 15.784C43.5602 16.072 43.9602 16.216 44.4722 16.216C45.0642 16.216 45.5682 16.056 45.9842 15.736L46.9922 18.376ZM57.0619 13.048V19H53.1739V13L46.6699 2.2H50.7979L55.2859 9.664L59.7739 2.2H63.5899L57.0619 13.048ZM69.307 19.192C67.947 19.192 66.723 18.912 65.635 18.352C64.563 17.776 63.723 16.984 63.115 15.976C62.507 14.968 62.203 13.824 62.203 12.544C62.203 11.264 62.507 10.12 63.115 9.112C63.723 8.104 64.563 7.32 65.635 6.76C66.723 6.184 67.947 5.896 69.307 5.896C70.667 5.896 71.883 6.184 72.955 6.76C74.027 7.32 74.867 8.104 75.475 9.112C76.083 10.12 76.387 11.264 76.387 12.544C76.387 13.824 76.083 14.968 75.475 15.976C74.867 16.984 74.027 17.776 72.955 18.352C71.883 18.912 70.667 19.192 69.307 19.192ZM69.307 16.12C70.267 16.12 71.051 15.8 71.659 15.16C72.283 14.504 72.595 13.632 72.595 12.544C72.595 11.456 72.283 10.592 71.659 9.952C71.051 9.296 70.267 8.968 69.307 8.968C68.347 8.968 67.555 9.296 66.931 9.952C66.307 10.592 65.995 11.456 65.995 12.544C65.995 13.632 66.307 14.504 66.931 15.16C67.555 15.8 68.347 16.12 69.307 16.12ZM91.5376 6.088V19H87.9856V17.464C87.4896 18.024 86.8976 18.456 86.2096 18.76C85.5216 19.048 84.7776 19.192 83.9776 19.192C82.2816 19.192 80.9376 18.704 79.9456 17.728C78.9536 16.752 78.4576 15.304 78.4576 13.384V6.088H82.2016V12.832C82.2016 14.912 83.0736 15.952 84.8176 15.952C85.7136 15.952 86.4336 15.664 86.9776 15.088C87.5216 14.496 87.7936 13.624 87.7936 12.472V6.088H91.5376ZM98.2221 7.792C98.6701 7.168 99.2701 6.696 100.022 6.376C100.79 6.056 101.67 5.896 102.662 5.896V9.352C102.246 9.32 101.966 9.304 101.822 9.304C100.75 9.304 99.9101 9.608 99.3021 10.216C98.6941 10.808 98.3901 11.704 98.3901 12.904V19H94.6461V6.088H98.2221V7.792ZM110.219 19.288C108.891 19.288 107.603 19.112 106.355 18.76C105.123 18.392 104.131 17.92 103.379 17.344L104.699 14.416C105.419 14.944 106.275 15.368 107.267 15.688C108.259 16.008 109.251 16.168 110.243 16.168C111.347 16.168 112.163 16.008 112.691 15.688C113.219 15.352 113.483 14.912 113.483 14.368C113.483 13.968 113.323 13.64 113.003 13.384C112.699 13.112 112.299 12.896 111.803 12.736C111.323 12.576 110.667 12.4 109.835 12.208C108.555 11.904 107.507 11.6 106.691 11.296C105.875 10.992 105.171 10.504 104.579 9.832C104.003 9.16 103.715 8.264 103.715 7.144C103.715 6.168 103.979 5.288 104.507 4.504C105.035 3.704 105.827 3.072 106.883 2.608C107.955 2.144 109.259 1.912 110.795 1.912C111.867 1.912 112.915 2.04 113.939 2.296C114.963 2.552 115.859 2.92 116.627 3.4L115.427 6.352C113.875 5.472 112.323 5.032 110.771 5.032C109.683 5.032 108.875 5.208 108.347 5.56C107.835 5.912 107.579 6.376 107.579 6.952C107.579 7.528 107.875 7.96 108.467 8.248C109.075 8.52 109.995 8.792 111.227 9.064C112.507 9.368 113.555 9.672 114.371 9.976C115.187 10.28 115.883 10.76 116.459 11.416C117.051 12.072 117.347 12.96 117.347 14.08C117.347 15.04 117.075 15.92 116.531 16.72C116.003 17.504 115.203 18.128 114.131 18.592C113.059 19.056 111.755 19.288 110.219 19.288ZM132.027 12.592C132.027 12.64 132.003 12.976 131.955 13.6H122.187C122.363 14.4 122.779 15.032 123.435 15.496C124.091 15.96 124.907 16.192 125.883 16.192C126.555 16.192 127.147 16.096 127.659 15.904C128.187 15.696 128.675 15.376 129.123 14.944L131.115 17.104C129.899 18.496 128.123 19.192 125.787 19.192C124.331 19.192 123.043 18.912 121.923 18.352C120.803 17.776 119.939 16.984 119.331 15.976C118.723 14.968 118.419 13.824 118.419 12.544C118.419 11.28 118.715 10.144 119.307 9.136C119.915 8.112 120.739 7.32 121.779 6.76C122.835 6.184 124.011 5.896 125.307 5.896C126.571 5.896 127.715 6.168 128.739 6.712C129.763 7.256 130.563 8.04 131.139 9.064C131.731 10.072 132.027 11.248 132.027 12.592ZM125.331 8.728C124.483 8.728 123.771 8.968 123.195 9.448C122.619 9.928 122.267 10.584 122.139 11.416H128.499C128.371 10.6 128.019 9.952 127.443 9.472C126.867 8.976 126.163 8.728 125.331 8.728ZM137.736 7.792C138.184 7.168 138.784 6.696 139.536 6.376C140.304 6.056 141.184 5.896 142.176 5.896V9.352C141.76 9.32 141.48 9.304 141.336 9.304C140.264 9.304 139.424 9.608 138.816 10.216C138.208 10.808 137.904 11.704 137.904 12.904V19H134.16V6.088H137.736V7.792ZM157.303 6.088L151.855 19H147.991L142.567 6.088H146.431L150.007 14.872L153.703 6.088H157.303ZM158.471 6.088H162.215V19H158.471V6.088ZM160.343 4.288C159.655 4.288 159.095 4.088 158.663 3.688C158.231 3.288 158.015 2.792 158.015 2.2C158.015 1.608 158.231 1.112 158.663 0.711999C159.095 0.311999 159.655 0.111999 160.343 0.111999C161.031 0.111999 161.591 0.303999 162.023 0.688C162.455 1.072 162.671 1.552 162.671 2.128C162.671 2.752 162.455 3.272 162.023 3.688C161.591 4.088 161.031 4.288 160.343 4.288ZM171.57 19.192C170.194 19.192 168.954 18.912 167.85 18.352C166.762 17.776 165.906 16.984 165.282 15.976C164.674 14.968 164.37 13.824 164.37 12.544C164.37 11.264 164.674 10.12 165.282 9.112C165.906 8.104 166.762 7.32 167.85 6.76C168.954 6.184 170.194 5.896 171.57 5.896C172.93 5.896 174.114 6.184 175.122 6.76C176.146 7.32 176.89 8.128 177.354 9.184L174.45 10.744C173.778 9.56 172.81 8.968 171.546 8.968C170.57 8.968 169.762 9.288 169.122 9.928C168.482 10.568 168.162 11.44 168.162 12.544C168.162 13.648 168.482 14.52 169.122 15.16C169.762 15.8 170.57 16.12 171.546 16.12C172.826 16.12 173.794 15.528 174.45 14.344L177.354 15.928C176.89 16.952 176.146 17.752 175.122 18.328C174.114 18.904 172.93 19.192 171.57 19.192ZM191.634 12.592C191.634 12.64 191.61 12.976 191.562 13.6H181.794C181.97 14.4 182.386 15.032 183.042 15.496C183.698 15.96 184.514 16.192 185.49 16.192C186.162 16.192 186.754 16.096 187.266 15.904C187.794 15.696 188.282 15.376 188.73 14.944L190.722 17.104C189.506 18.496 187.73 19.192 185.394 19.192C183.938 19.192 182.65 18.912 181.53 18.352C180.41 17.776 179.546 16.984 178.938 15.976C178.33 14.968 178.026 13.824 178.026 12.544C178.026 11.28 178.322 10.144 178.914 9.136C179.522 8.112 180.346 7.32 181.386 6.76C182.442 6.184 183.618 5.896 184.914 5.896C186.178 5.896 187.322 6.168 188.346 6.712C189.37 7.256 190.17 8.04 190.746 9.064C191.338 10.072 191.634 11.248 191.634 12.592ZM184.938 8.728C184.09 8.728 183.378 8.968 182.802 9.448C182.226 9.928 181.874 10.584 181.746 11.416H188.106C187.978 10.6 187.626 9.952 187.05 9.472C186.474 8.976 185.77 8.728 184.938 8.728Z" fill="#FF0000" fill-opacity="0.12"/>
<path d="M17.344 10.336V9.336H16.344V10.336H17.344ZM20.896 10.336H21.896V9.336H20.896V10.336ZM20.896 17.152L21.4982 17.9503L21.896 17.6503V17.152H20.896ZM17.728 18.736L18.0212 19.6921L18.0212 19.6921L17.728 18.736ZM9.4 18.184L8.92468 19.0639L8.93258 19.068L9.4 18.184ZM6.112 15.088L5.25087 15.5964L5.25449 15.6025L5.2582 15.6086L6.112 15.088ZM6.112 6.136L5.25541 5.61998L5.25358 5.62304L6.112 6.136ZM9.424 3.04L9.88727 3.92626L9.89511 3.92207L9.424 3.04ZM18.184 2.656L18.566 1.73183L18.566 1.73183L18.184 2.656ZM21.208 4.816L21.8863 5.5508L22.5975 4.8943L21.9645 4.16205L21.208 4.816ZM18.712 7.12L17.9868 7.80851L18.6657 8.52365L19.3903 7.8548L18.712 7.12ZM11.512 5.896L11.9861 6.77647L11.9861 6.77647L11.512 5.896ZM9.568 13.384L8.69871 13.8783L8.69871 13.8783L9.568 13.384ZM11.488 15.304L10.9937 16.1733L11.0037 16.179L11.0139 16.1845L11.488 15.304ZM17.344 15.256L17.8162 16.1375L18.344 15.8547V15.256H17.344ZM17.344 11.336H20.896V9.336H17.344V11.336ZM19.896 10.336V17.152H21.896V10.336H19.896ZM20.2938 16.3537C19.4835 16.9649 18.5344 17.4427 17.4348 17.7799L18.0212 19.6921C19.3216 19.2933 20.4845 18.7151 21.4982 17.9503L20.2938 16.3537ZM17.4348 17.7799C16.3267 18.1198 15.2175 18.288 14.104 18.288V20.288C15.4225 20.288 16.7293 20.0882 18.0212 19.6921L17.4348 17.7799ZM14.104 18.288C12.5051 18.288 11.1004 17.9519 9.86742 17.3L8.93258 19.068C10.4836 19.8881 12.2149 20.288 14.104 20.288V18.288ZM9.87531 17.3042C8.63421 16.6337 7.67083 15.7237 6.9658 14.5674L5.2582 15.6086C6.15317 17.0763 7.38179 18.2303 8.92469 19.0638L9.87531 17.3042ZM6.97313 14.5796C6.2872 13.4177 5.936 12.0998 5.936 10.6H3.936C3.936 12.4282 4.3688 14.1023 5.25087 15.5964L6.97313 14.5796ZM5.936 10.6C5.936 9.10007 6.28721 7.79227 6.97042 6.64896L5.25358 5.62304C4.36879 7.10373 3.936 8.77193 3.936 10.6H5.936ZM6.96858 6.65201C7.67148 5.48521 8.6376 4.57945 9.88725 3.92622L8.96075 2.15377C7.3944 2.97255 6.15252 4.13079 5.25542 5.61999L6.96858 6.65201ZM9.89511 3.92207C11.1437 3.25521 12.5631 2.912 14.176 2.912V0.912C12.2689 0.912 10.5203 1.32079 8.95289 2.15792L9.89511 3.92207ZM14.176 2.912C15.5344 2.912 16.7383 3.14049 17.802 3.58017L18.566 1.73183C17.2297 1.17951 15.7616 0.912 14.176 0.912V2.912ZM17.802 3.58017C18.8638 4.01905 19.7417 4.64886 20.4515 5.46995L21.9645 4.16205C21.0423 3.09514 19.9042 2.28495 18.566 1.73183L17.802 3.58017ZM20.5297 4.0812L18.0337 6.3852L19.3903 7.8548L21.8863 5.5508L20.5297 4.0812ZM19.4372 6.43149C18.0543 4.97482 16.3467 4.224 14.368 4.224V6.224C15.7813 6.224 16.9697 6.73718 17.9868 7.80851L19.4372 6.43149ZM14.368 4.224C13.153 4.224 12.0342 4.47904 11.0379 5.01553L11.9861 6.77647C12.6538 6.41696 13.439 6.224 14.368 6.224V4.224ZM11.0379 5.01553C10.0417 5.55195 9.25621 6.31727 8.69871 7.2977L10.4373 8.2863C10.8078 7.63473 11.3183 7.13605 11.9861 6.77647L11.0379 5.01553ZM8.69871 7.2977C8.13875 8.28245 7.872 9.39276 7.872 10.6H9.872C9.872 9.69524 10.0692 8.93355 10.4373 8.2863L8.69871 7.2977ZM7.872 10.6C7.872 11.7942 8.14005 12.8958 8.69871 13.8783L10.4373 12.8897C10.068 12.2402 9.872 11.4858 9.872 10.6H7.872ZM8.69871 13.8783C9.25168 14.8508 10.0212 15.6203 10.9937 16.1733L11.9823 14.4347C11.3228 14.0597 10.8123 13.5492 10.4373 12.8897L8.69871 13.8783ZM11.0139 16.1845C12.0081 16.7198 13.1183 16.976 14.32 16.976V14.976C13.4097 14.976 12.6319 14.7842 11.9621 14.4235L11.0139 16.1845ZM14.32 16.976C15.5876 16.976 16.7606 16.703 17.8162 16.1375L16.8718 14.3745C16.1354 14.769 15.2924 14.976 14.32 14.976V16.976ZM18.344 15.256V10.336H16.344V15.256H18.344ZM36.4596 13.6V14.6H37.3857L37.4567 13.6767L36.4596 13.6ZM26.6916 13.6V12.6H25.4477L25.715 13.8149L26.6916 13.6ZM27.9396 15.496L28.5171 14.6796L28.5171 14.6796L27.9396 15.496ZM32.1636 15.904L32.5147 16.8403L32.5225 16.8374L32.5301 16.8344L32.1636 15.904ZM33.6276 14.944L34.3627 14.2661L33.6695 13.5144L32.9335 14.2242L33.6276 14.944ZM35.6196 17.104L36.3727 17.7619L36.9633 17.0859L36.3547 16.4261L35.6196 17.104ZM26.4276 18.352L25.9702 19.2413L25.9804 19.2464L26.4276 18.352ZM23.8356 15.976L22.9793 16.4925L22.9793 16.4925L23.8356 15.976ZM23.8116 9.136L22.9518 8.62546L22.9493 8.62958L23.8116 9.136ZM26.2836 6.76L26.7577 7.64048L26.7625 7.63789L26.2836 6.76ZM33.2436 6.712L33.7128 5.82888L33.7128 5.82888L33.2436 6.712ZM35.6436 9.064L34.772 9.55426L34.7766 9.56238L34.7813 9.57042L35.6436 9.064ZM27.6996 9.448L27.0594 8.67978L27.0594 8.67978L27.6996 9.448ZM26.6436 11.416L25.6553 11.2639L25.478 12.416H26.6436V11.416ZM33.0036 11.416V12.416H34.1727L33.9915 11.261L33.0036 11.416ZM31.9476 9.472L31.2951 10.2298L31.3012 10.235L31.3074 10.2402L31.9476 9.472ZM35.5316 12.592C35.5316 12.5657 35.5328 12.5599 35.5291 12.6196C35.5263 12.6633 35.5221 12.7259 35.5162 12.8088C35.5044 12.974 35.4865 13.2119 35.4626 13.5233L37.4567 13.6767C37.5018 13.0897 37.5316 12.6907 37.5316 12.592H35.5316ZM36.4596 12.6H26.6916V14.6H36.4596V12.6ZM25.715 13.8149C25.9433 14.8529 26.4985 15.7015 27.3622 16.3124L28.5171 14.6796C28.0687 14.3625 27.7919 13.9471 27.6683 13.3851L25.715 13.8149ZM27.3622 16.3124C28.2205 16.9195 29.25 17.192 30.3876 17.192V15.192C29.5733 15.192 28.9707 15.0005 28.5171 14.6796L27.3622 16.3124ZM30.3876 17.192C31.153 17.192 31.8681 17.0828 32.5147 16.8403L31.8125 14.9677C31.4352 15.1092 30.9662 15.192 30.3876 15.192V17.192ZM32.5301 16.8344C33.1914 16.5739 33.7886 16.178 34.3218 15.6638L32.9335 14.2242C32.5707 14.574 32.1918 14.8181 31.7971 14.9736L32.5301 16.8344ZM32.8925 15.6219L34.8845 17.7819L36.3547 16.4261L34.3627 14.2661L32.8925 15.6219ZM34.8665 16.4461C33.8884 17.5658 32.4209 18.192 30.2916 18.192V20.192C32.8343 20.192 34.9189 19.4262 36.3727 17.7619L34.8665 16.4461ZM30.2916 18.192C28.9656 18.192 27.835 17.9377 26.8748 17.4576L25.9804 19.2464C27.2602 19.8863 28.7056 20.192 30.2916 20.192V18.192ZM26.885 17.4627C25.918 16.9654 25.1973 16.2975 24.6919 15.4595L22.9793 16.4925C23.6899 17.6705 24.6973 18.5866 25.9703 19.2413L26.885 17.4627ZM24.6919 15.4595C24.1861 14.6209 23.9236 13.6584 23.9236 12.544H21.9236C21.9236 13.9896 22.2692 15.3151 22.9793 16.4925L24.6919 15.4595ZM23.9236 12.544C23.9236 11.4431 24.1794 10.4845 24.6739 9.64242L22.9493 8.62958C22.2599 9.80352 21.9236 11.1169 21.9236 12.544H23.9236ZM24.6715 9.64654C25.1876 8.77721 25.8789 8.1137 26.7577 7.64047L25.8095 5.87953C24.6084 6.5263 23.6516 7.44679 22.9518 8.62546L24.6715 9.64654ZM26.7625 7.63789C27.6603 7.14816 28.6696 6.896 29.8116 6.896V4.896C28.3616 4.896 27.0189 5.21984 25.8048 5.8821L26.7625 7.63789ZM29.8116 6.896C30.9271 6.896 31.9077 7.13464 32.7745 7.59512L33.7128 5.82888C32.5316 5.20136 31.2241 4.896 29.8116 4.896V6.896ZM32.7745 7.59512C33.6272 8.0481 34.2885 8.69467 34.772 9.55426L36.5152 8.57374C35.8467 7.38533 34.9081 6.4639 33.7128 5.82888L32.7745 7.59512ZM34.7813 9.57042C35.2704 10.4031 35.5316 11.399 35.5316 12.592H37.5316C37.5316 11.097 37.2009 9.74089 36.5059 8.55758L34.7813 9.57042ZM29.8356 7.728C28.7862 7.728 27.8386 8.03044 27.0594 8.67978L28.3398 10.2162C28.7126 9.90556 29.189 9.728 29.8356 9.728V7.728ZM27.0594 8.67978C26.2729 9.33523 25.8154 10.2227 25.6553 11.2639L27.632 11.5681C27.7278 10.9453 27.9744 10.5208 28.3398 10.2162L27.0594 8.67978ZM26.6436 12.416H33.0036V10.416H26.6436V12.416ZM33.9915 11.261C33.83 10.2314 33.3698 9.35541 32.5878 8.70378L31.3074 10.2402C31.6775 10.5486 31.9212 10.9686 32.0157 11.571L33.9915 11.261ZM32.6001 8.71423C31.825 8.04675 30.8828 7.728 29.8356 7.728V9.728C30.4525 9.728 30.9182 9.90524 31.2951 10.2298L32.6001 8.71423ZM46.9922 18.376L47.5866 19.1802L48.1974 18.7288L47.9265 18.0193L46.9922 18.376ZM45.6242 19L45.8598 19.9719L45.87 19.9694L45.8801 19.9667L45.6242 19ZM40.3682 18.016L39.6824 18.7438L39.6894 18.7503L40.3682 18.016ZM39.1202 9.256H40.1202V8.256H39.1202V9.256ZM37.1282 9.256H36.1282V10.256H37.1282V9.256ZM37.1282 6.376V5.376H36.1282V6.376H37.1282ZM39.1202 6.376V7.376H40.1202V6.376H39.1202ZM39.1202 3.232V2.232H38.1202V3.232H39.1202ZM42.8642 3.232H43.8642V2.232H42.8642V3.232ZM42.8642 6.376H41.8642V7.376H42.8642V6.376ZM46.0802 6.376H47.0802V5.376H46.0802V6.376ZM46.0802 9.256V10.256H47.0802V9.256H46.0802ZM42.8642 9.256V8.256H41.8642V9.256H42.8642ZM43.2722 15.784L42.527 16.4508L42.5455 16.4715L42.5651 16.4911L43.2722 15.784ZM45.9842 15.736L46.9185 15.3793L46.4393 14.1243L45.3745 14.9434L45.9842 15.736ZM46.3979 17.5718C46.1518 17.7537 45.8174 17.9144 45.3684 18.0333L45.8801 19.9667C46.5191 19.7976 47.0967 19.5423 47.5866 19.1802L46.3979 17.5718ZM45.3886 18.0281C44.9443 18.1359 44.4639 18.192 43.9442 18.192V20.192C44.6086 20.192 45.2482 20.1201 45.8598 19.9719L45.3886 18.0281ZM43.9442 18.192C42.575 18.192 41.6562 17.8449 41.0471 17.2817L39.6894 18.7503C40.7763 19.7551 42.2415 20.192 43.9442 20.192V18.192ZM41.0541 17.2882C40.4825 16.7496 40.1202 15.8993 40.1202 14.56H38.1202C38.1202 16.2607 38.59 17.7144 39.6824 18.7438L41.0541 17.2882ZM40.1202 14.56V9.256H38.1202V14.56H40.1202ZM39.1202 8.256H37.1282V10.256H39.1202V8.256ZM38.1282 9.256V6.376H36.1282V9.256H38.1282ZM37.1282 7.376H39.1202V5.376H37.1282V7.376ZM40.1202 6.376V3.232H38.1202V6.376H40.1202ZM39.1202 4.232H42.8642V2.232H39.1202V4.232ZM41.8642 3.232V6.376H43.8642V3.232H41.8642ZM42.8642 7.376H46.0802V5.376H42.8642V7.376ZM45.0802 6.376V9.256H47.0802V6.376H45.0802ZM46.0802 8.256H42.8642V10.256H46.0802V8.256ZM41.8642 9.256V14.512H43.8642V9.256H41.8642ZM41.8642 14.512C41.8642 15.2186 42.0428 15.9096 42.527 16.4508L44.0175 15.1172C43.9577 15.0504 43.8642 14.8934 43.8642 14.512H41.8642ZM42.5651 16.4911C43.086 17.012 43.7669 17.216 44.4722 17.216V15.216C44.1536 15.216 44.0345 15.132 43.9794 15.0769L42.5651 16.4911ZM44.4722 17.216C45.2551 17.216 45.981 17.0001 46.594 16.5286L45.3745 14.9434C45.1555 15.1119 44.8734 15.216 44.4722 15.216V17.216ZM45.05 16.0927L46.058 18.7327L47.9265 18.0193L46.9185 15.3793L45.05 16.0927ZM57.0619 13.048L56.2051 12.5324L56.0619 12.7703V13.048H57.0619ZM57.0619 19V20H58.0619V19H57.0619ZM53.1739 19H52.1739V20H53.1739V19ZM53.1739 13H54.1739V12.7221L54.0306 12.4841L53.1739 13ZM46.6699 2.2V1.2H44.9004L45.8133 2.71589L46.6699 2.2ZM50.7979 2.2L51.6549 1.68469L51.3635 1.2H50.7979V2.2ZM55.2859 9.664L54.4289 10.1793L55.2859 11.6046L56.1429 10.1793L55.2859 9.664ZM59.7739 2.2V1.2H59.2084L58.9169 1.68469L59.7739 2.2ZM63.5899 2.2L64.4468 2.71561L65.3588 1.2H63.5899V2.2ZM56.0619 13.048V19H58.0619V13.048H56.0619ZM57.0619 18H53.1739V20H57.0619V18ZM54.1739 19V13H52.1739V19H54.1739ZM54.0306 12.4841L47.5266 1.6841L45.8133 2.71589L52.3173 13.5159L54.0306 12.4841ZM46.6699 3.2H50.7979V1.2H46.6699V3.2ZM49.9409 2.7153L54.4289 10.1793L56.1429 9.14869L51.6549 1.68469L49.9409 2.7153ZM56.1429 10.1793L60.6309 2.7153L58.9169 1.68469L54.4289 9.14869L56.1429 10.1793ZM59.7739 3.2H63.5899V1.2H59.7739V3.2ZM62.7331 1.68439L56.2051 12.5324L57.9188 13.5636L64.4468 2.71561L62.7331 1.68439ZM65.635 18.352L65.1617 19.2329L65.1695 19.2371L65.1774 19.2411L65.635 18.352ZM63.115 15.976L62.2587 16.4925L62.2587 16.4925L63.115 15.976ZM63.115 9.112L62.2587 8.59551L62.2587 8.59551L63.115 9.112ZM65.635 6.76L66.098 7.64636L66.1029 7.64379L65.635 6.76ZM72.955 6.76L72.4817 7.64095L72.492 7.64635L72.955 6.76ZM75.475 9.112L76.3313 8.59551L76.3313 8.59551L75.475 9.112ZM75.475 15.976L76.3313 16.4925L76.3313 16.4925L75.475 15.976ZM72.955 18.352L73.4181 19.2384L73.4283 19.2329L72.955 18.352ZM71.659 15.16L70.9344 14.4708L70.934 14.4713L71.659 15.16ZM71.659 9.952L70.9256 10.6318L70.9342 10.641L70.943 10.6501L71.659 9.952ZM66.931 9.952L67.6471 10.6502L67.6556 10.6412L66.931 9.952ZM66.931 15.16L66.2064 15.8493L66.215 15.8581L66.931 15.16ZM69.307 18.192C68.0882 18.192 67.0239 17.9422 66.0926 17.4629L65.1774 19.2411C66.4221 19.8818 67.8058 20.192 69.307 20.192V18.192ZM66.1083 17.4711C65.1888 16.977 64.4834 16.3085 63.9713 15.4595L62.2587 16.4925C62.9626 17.6595 63.9372 18.575 65.1617 19.2329L66.1083 17.4711ZM63.9713 15.4595C63.4655 14.6209 63.203 13.6584 63.203 12.544H61.203C61.203 13.9896 61.5485 15.3151 62.2587 16.4925L63.9713 15.4595ZM63.203 12.544C63.203 11.4296 63.4655 10.4671 63.9713 9.62849L62.2587 8.59551C61.5485 9.77289 61.203 11.0984 61.203 12.544H63.203ZM63.9713 9.62849C64.4819 8.78197 65.1839 8.1239 66.098 7.64635L65.172 5.87365C63.9421 6.5161 62.9641 7.42603 62.2587 8.59551L63.9713 9.62849ZM66.1029 7.64379C67.0321 7.15185 68.0927 6.896 69.307 6.896V4.896C67.8013 4.896 66.4139 5.21615 65.1671 5.87621L66.1029 7.64379ZM69.307 6.896C70.5216 6.896 71.5716 7.15192 72.4817 7.64089L73.4283 5.87911C72.1944 5.21608 70.8125 4.896 69.307 4.896V6.896ZM72.492 7.64635C73.4062 8.1239 74.1081 8.78197 74.6187 9.62849L76.3313 8.59551C75.6259 7.42603 74.6479 6.5161 73.418 5.87365L72.492 7.64635ZM74.6187 9.62849C75.1245 10.4671 75.387 11.4296 75.387 12.544H77.387C77.387 11.0984 77.0415 9.77289 76.3313 8.59551L74.6187 9.62849ZM75.387 12.544C75.387 13.6584 75.1245 14.6209 74.6187 15.4595L76.3313 16.4925C77.0415 15.3151 77.387 13.9896 77.387 12.544H75.387ZM74.6187 15.4595C74.1066 16.3085 73.4012 16.977 72.4817 17.4711L73.4283 19.2329C74.6528 18.575 75.6274 17.6595 76.3313 16.4925L74.6187 15.4595ZM72.492 17.4657C71.5799 17.9421 70.5261 18.192 69.307 18.192V20.192C70.8079 20.192 72.1861 19.8819 73.418 19.2383L72.492 17.4657ZM69.307 17.12C70.5145 17.12 71.5696 16.706 72.384 15.8487L70.934 14.4713C70.5324 14.894 70.0195 15.12 69.307 15.12V17.12ZM72.3836 15.8492C73.2189 14.971 73.595 13.8336 73.595 12.544H71.595C71.595 13.4304 71.3471 14.037 70.9344 14.4708L72.3836 15.8492ZM73.595 12.544C73.595 11.2553 73.2191 10.1197 72.375 9.2539L70.943 10.6501C71.3469 11.0643 71.595 11.6567 71.595 12.544H73.595ZM72.3924 9.27224C71.5802 8.39587 70.5225 7.968 69.307 7.968V9.968C70.0115 9.968 70.5218 10.1961 70.9256 10.6318L72.3924 9.27224ZM69.307 7.968C68.0916 7.968 67.0316 8.39533 66.2064 9.26279L67.6556 10.6412C68.0784 10.1967 68.6024 9.968 69.307 9.968V7.968ZM66.215 9.2539C65.3709 10.1197 64.995 11.2553 64.995 12.544H66.995C66.995 11.6567 67.2431 11.0643 67.647 10.6501L66.215 9.2539ZM64.995 12.544C64.995 13.8336 65.3711 14.971 66.2064 15.8492L67.6556 14.4708C67.2429 14.037 66.995 13.4304 66.995 12.544H64.995ZM66.215 15.8581C67.0421 16.7064 68.0996 17.12 69.307 17.12V15.12C68.5945 15.12 68.0679 14.8936 67.647 14.4619L66.215 15.8581ZM91.5376 6.088H92.5376V5.088H91.5376V6.088ZM91.5376 19V20H92.5376V19H91.5376ZM87.9856 19H86.9856V20H87.9856V19ZM87.9856 17.464H88.9856V14.8268L87.237 16.801L87.9856 17.464ZM86.2096 18.76L86.5957 19.6824L86.6047 19.6787L86.6137 19.6747L86.2096 18.76ZM79.9456 17.728L80.6469 17.0152L80.6469 17.0152L79.9456 17.728ZM78.4576 6.088V5.088H77.4576V6.088H78.4576ZM82.2016 6.088H83.2016V5.088H82.2016V6.088ZM86.9776 15.088L87.7046 15.7747L87.7139 15.7646L86.9776 15.088ZM87.7936 6.088V5.088H86.7936V6.088H87.7936ZM90.5376 6.088V19H92.5376V6.088H90.5376ZM91.5376 18H87.9856V20H91.5376V18ZM88.9856 19V17.464H86.9856V19H88.9856ZM87.237 16.801C86.8369 17.2527 86.3626 17.5991 85.8054 17.8453L86.6137 19.6747C87.4326 19.3129 88.1422 18.7953 88.7341 18.127L87.237 16.801ZM85.8234 17.8376C85.2664 18.0707 84.6547 18.192 83.9776 18.192V20.192C84.9004 20.192 85.7767 20.0253 86.5957 19.6824L85.8234 17.8376ZM83.9776 18.192C82.483 18.192 81.4125 17.7684 80.6469 17.0152L79.2442 18.4408C80.4627 19.6396 82.0801 20.192 83.9776 20.192V18.192ZM80.6469 17.0152C79.9092 16.2894 79.4576 15.1401 79.4576 13.384H77.4576C77.4576 15.4679 77.9979 17.2146 79.2442 18.4408L80.6469 17.0152ZM79.4576 13.384V6.088H77.4576V13.384H79.4576ZM78.4576 7.088H82.2016V5.088H78.4576V7.088ZM81.2016 6.088V12.832H83.2016V6.088H81.2016ZM81.2016 12.832C81.2016 13.9874 81.4401 15.0402 82.0893 15.8145C82.7668 16.6225 83.7406 16.952 84.8176 16.952V14.952C84.1505 14.952 83.8163 14.7615 83.6218 14.5295C83.399 14.2638 83.2016 13.7566 83.2016 12.832H81.2016ZM84.8176 16.952C85.9491 16.952 86.9461 16.5777 87.7046 15.7746L86.2505 14.4014C85.921 14.7503 85.478 14.952 84.8176 14.952V16.952ZM87.7139 15.7646C88.4885 14.9217 88.7936 13.7668 88.7936 12.472H86.7936C86.7936 13.4812 86.5546 14.0703 86.2412 14.4114L87.7139 15.7646ZM88.7936 12.472V6.088H86.7936V12.472H88.7936ZM87.7936 7.088H91.5376V5.088H87.7936V7.088ZM98.2221 7.792H97.2221V10.8995L99.0344 8.37521L98.2221 7.792ZM100.022 6.376L99.6375 5.4529L99.6306 5.45584L100.022 6.376ZM102.662 5.896H103.662V4.896H102.662V5.896ZM102.662 9.352L102.585 10.3491L103.662 10.4319V9.352H102.662ZM99.3021 10.216L99.9998 10.9325L100.009 10.9231L99.3021 10.216ZM98.3901 19V20H99.3901V19H98.3901ZM94.6461 19H93.6461V20H94.6461V19ZM94.6461 6.088V5.088H93.6461V6.088H94.6461ZM98.2221 6.088H99.2221V5.088H98.2221V6.088ZM99.0344 8.37521C99.3688 7.90952 99.8189 7.54924 100.414 7.29615L99.6306 5.45584C98.7213 5.84276 97.9715 6.42648 97.4098 7.20879L99.0344 8.37521ZM100.407 7.29908C101.032 7.03863 101.777 6.896 102.662 6.896V4.896C101.563 4.896 100.548 5.07337 99.6375 5.45292L100.407 7.29908ZM101.662 5.896V9.352H103.662V5.896H101.662ZM102.739 8.35495C102.328 8.32336 102.011 8.304 101.822 8.304V10.304C101.922 10.304 102.164 10.3166 102.585 10.3491L102.739 8.35495ZM101.822 8.304C100.554 8.304 99.4344 8.66953 98.595 9.50889L100.009 10.9231C100.386 10.5465 100.946 10.304 101.822 10.304V8.304ZM98.6045 9.49953C97.7347 10.3464 97.3901 11.5476 97.3901 12.904H99.3901C99.3901 11.8604 99.6535 11.2696 99.9997 10.9325L98.6045 9.49953ZM97.3901 12.904V19H99.3901V12.904H97.3901ZM98.3901 18H94.6461V20H98.3901V18ZM95.6461 19V6.088H93.6461V19H95.6461ZM94.6461 7.088H98.2221V5.088H94.6461V7.088ZM97.2221 6.088V7.792H99.2221V6.088H97.2221ZM106.355 18.76L106.068 19.7182L106.076 19.7204L106.083 19.7224L106.355 18.76ZM103.379 17.344L102.467 16.933L102.141 17.6558L102.77 18.1379L103.379 17.344ZM104.699 14.416L105.29 13.6096L104.294 12.8795L103.787 14.005L104.699 14.416ZM107.267 15.688L107.574 14.7363L107.574 14.7363L107.267 15.688ZM112.691 15.688L113.209 16.5432L113.218 16.5375L113.227 16.5317L112.691 15.688ZM113.003 13.384L112.336 14.1292L112.356 14.1476L112.378 14.1649L113.003 13.384ZM111.803 12.736L111.486 13.6847L111.496 13.6877L111.803 12.736ZM109.835 12.208L109.603 13.181L109.61 13.1824L109.835 12.208ZM106.691 11.296L107.04 10.3589L107.04 10.3589L106.691 11.296ZM104.579 9.832L103.819 10.4829L103.828 10.493L104.579 9.832ZM104.507 4.504L105.336 5.06262L105.341 5.05484L104.507 4.504ZM106.883 2.608L106.485 1.69026L106.48 1.69248L106.883 2.608ZM113.939 2.296L114.181 1.32586L114.181 1.32586L113.939 2.296ZM116.627 3.4L117.553 3.77658L117.87 2.99764L117.157 2.552L116.627 3.4ZM115.427 6.352L114.933 7.22189L115.924 7.78365L116.353 6.72858L115.427 6.352ZM108.347 5.56L107.792 4.72795L107.786 4.73191L107.78 4.73596L108.347 5.56ZM108.467 8.248L108.029 9.14723L108.044 9.15426L108.058 9.16082L108.467 8.248ZM111.227 9.064L111.458 8.09106L111.45 8.08923L111.442 8.08751L111.227 9.064ZM114.371 9.976L114.72 9.03892L114.72 9.03892L114.371 9.976ZM116.459 11.416L115.707 12.0759L115.716 12.086L116.459 11.416ZM116.531 16.72L115.704 16.1577L115.701 16.1614L116.531 16.72ZM114.131 18.592L113.733 17.6743L113.733 17.6743L114.131 18.592ZM110.219 18.288C108.98 18.288 107.784 18.124 106.626 17.7976L106.083 19.7224C107.422 20.1 108.801 20.288 110.219 20.288V18.288ZM106.641 17.8018C105.486 17.457 104.615 17.0311 103.987 16.5501L102.77 18.1379C103.647 18.8089 104.759 19.327 106.068 19.7182L106.641 17.8018ZM104.29 17.755L105.61 14.827L103.787 14.005L102.467 16.933L104.29 17.755ZM104.107 15.2224C104.927 15.8234 105.882 16.2922 106.96 16.6397L107.574 14.7363C106.667 14.4438 105.91 14.0646 105.29 13.6096L104.107 15.2224ZM106.96 16.6397C108.046 16.9901 109.141 17.168 110.243 17.168V15.168C109.36 15.168 108.471 15.0259 107.574 14.7363L106.96 16.6397ZM110.243 17.168C111.405 17.168 112.445 17.0064 113.209 16.5432L112.172 14.8328C111.881 15.0096 111.288 15.168 110.243 15.168V17.168ZM113.227 16.5317C113.993 16.0445 114.483 15.3102 114.483 14.368H112.483C112.483 14.5138 112.444 14.6595 112.154 14.8443L113.227 16.5317ZM114.483 14.368C114.483 13.6557 114.178 13.0435 113.627 12.6031L112.378 14.1649C112.467 14.2365 112.483 14.2803 112.483 14.368H114.483ZM113.669 12.6388C113.237 12.2515 112.703 11.9757 112.11 11.7843L111.496 13.6877C111.894 13.8163 112.161 13.9725 112.336 14.1292L113.669 12.6388ZM112.119 11.7873C111.595 11.6128 110.904 11.4286 110.059 11.2336L109.61 13.1824C110.429 13.3714 111.05 13.5392 111.486 13.6847L112.119 11.7873ZM110.066 11.2351C108.808 10.9363 107.803 10.6433 107.04 10.3589L106.341 12.2331C107.21 12.5567 108.301 12.8717 109.603 13.1809L110.066 11.2351ZM107.04 10.3589C106.383 10.1141 105.815 9.72295 105.329 9.17097L103.828 10.493C104.526 11.2851 105.366 11.8699 106.341 12.2331L107.04 10.3589ZM105.338 9.18121C104.955 8.73445 104.715 8.09045 104.715 7.144H102.715C102.715 8.43755 103.05 9.58555 103.819 10.4828L105.338 9.18121ZM104.715 7.144C104.715 6.36015 104.923 5.67591 105.336 5.0626L103.677 3.9454C103.034 4.90009 102.715 5.97585 102.715 7.144H104.715ZM105.341 5.05484C105.743 4.44557 106.369 3.92601 107.285 3.52352L106.48 1.69248C105.284 2.21799 104.326 2.96243 103.672 3.95316L105.341 5.05484ZM107.28 3.52572C108.194 3.1302 109.354 2.912 110.795 2.912V0.912C109.163 0.912 107.716 1.1578 106.485 1.69028L107.28 3.52572ZM110.795 2.912C111.786 2.912 112.753 3.03028 113.696 3.26614L114.181 1.32586C113.077 1.04972 111.947 0.912 110.795 0.912V2.912ZM113.696 3.26614C114.635 3.50084 115.431 3.83183 116.097 4.248L117.157 2.552C116.286 2.00817 115.29 1.60316 114.181 1.32586L113.696 3.26614ZM115.7 3.02342L114.5 5.97542L116.353 6.72858L117.553 3.77658L115.7 3.02342ZM115.92 5.48211C114.24 4.52974 112.52 4.032 110.771 4.032V6.032C112.125 6.032 113.509 6.41426 114.933 7.22189L115.92 5.48211ZM110.771 4.032C109.61 4.032 108.564 4.21311 107.792 4.72795L108.901 6.39205C109.185 6.20289 109.755 6.032 110.771 6.032V4.032ZM107.78 4.73596C107.022 5.2572 106.579 6.01727 106.579 6.952H108.579C108.579 6.73472 108.647 6.5668 108.913 6.38404L107.78 4.73596ZM106.579 6.952C106.579 7.4207 106.702 7.87423 106.976 8.27323C107.244 8.6646 107.617 8.94659 108.029 9.14723L108.904 7.34876C108.724 7.26141 108.653 7.1834 108.625 7.14277C108.603 7.10977 108.579 7.0593 108.579 6.952H106.579ZM108.058 9.16082C108.761 9.47511 109.76 9.76437 111.011 10.0405L111.442 8.08751C110.229 7.81963 109.388 7.56489 108.875 7.33518L108.058 9.16082ZM110.995 10.0369C112.253 10.3357 113.258 10.6287 114.021 10.9131L114.72 9.03892C113.851 8.71528 112.76 8.4003 111.458 8.09106L110.995 10.0369ZM114.021 10.9131C114.682 11.1592 115.24 11.5437 115.707 12.0758L117.21 10.7562C116.525 9.97625 115.691 9.40081 114.72 9.03892L114.021 10.9131ZM115.716 12.086C116.102 12.513 116.347 13.139 116.347 14.08H118.347C118.347 12.781 118 11.631 117.201 10.746L115.716 12.086ZM116.347 14.08C116.347 14.8378 116.136 15.5222 115.704 16.1577L117.357 17.2823C118.013 16.3178 118.347 15.2422 118.347 14.08H116.347ZM115.701 16.1614C115.303 16.7532 114.671 17.2683 113.733 17.6743L114.528 19.5097C115.734 18.9877 116.703 18.2548 117.36 17.2786L115.701 16.1614ZM113.733 17.6743C112.82 18.0698 111.659 18.288 110.219 18.288V20.288C111.85 20.288 113.298 20.0422 114.528 19.5097L113.733 17.6743ZM131.955 13.6V14.6H132.881L132.952 13.6767L131.955 13.6ZM122.187 13.6V12.6H120.943L121.211 13.8149L122.187 13.6ZM123.435 15.496L124.013 14.6796L124.013 14.6796L123.435 15.496ZM127.659 15.904L128.01 16.8403L128.018 16.8374L128.026 16.8344L127.659 15.904ZM129.123 14.944L129.858 14.2661L129.165 13.5144L128.429 14.2242L129.123 14.944ZM131.115 17.104L131.868 17.7619L132.459 17.0859L131.85 16.4261L131.115 17.104ZM121.923 18.352L121.466 19.2413L121.476 19.2464L121.923 18.352ZM119.331 15.976L118.475 16.4925L118.475 16.4925L119.331 15.976ZM119.307 9.136L118.447 8.62546L118.445 8.62958L119.307 9.136ZM121.779 6.76L122.253 7.64048L122.258 7.63789L121.779 6.76ZM128.739 6.712L129.208 5.82888L129.208 5.82888L128.739 6.712ZM131.139 9.064L130.268 9.55426L130.272 9.56238L130.277 9.57042L131.139 9.064ZM123.195 9.448L122.555 8.67978L122.555 8.67978L123.195 9.448ZM122.139 11.416L121.151 11.2639L120.974 12.416H122.139V11.416ZM128.499 11.416V12.416H129.668L129.487 11.261L128.499 11.416ZM127.443 9.472L126.791 10.2298L126.797 10.235L126.803 10.2402L127.443 9.472ZM131.027 12.592C131.027 12.5657 131.028 12.5599 131.025 12.6196C131.022 12.6633 131.018 12.7259 131.012 12.8088C131 12.974 130.982 13.2119 130.958 13.5233L132.952 13.6767C132.997 13.0897 133.027 12.6907 133.027 12.592H131.027ZM131.955 12.6H122.187V14.6H131.955V12.6ZM121.211 13.8149C121.439 14.8529 121.994 15.7015 122.858 16.3124L124.013 14.6796C123.564 14.3625 123.288 13.9471 123.164 13.3851L121.211 13.8149ZM122.858 16.3124C123.716 16.9195 124.746 17.192 125.883 17.192V15.192C125.069 15.192 124.466 15.0005 124.013 14.6796L122.858 16.3124ZM125.883 17.192C126.649 17.192 127.364 17.0828 128.01 16.8403L127.308 14.9677C126.931 15.1092 126.462 15.192 125.883 15.192V17.192ZM128.026 16.8344C128.687 16.5739 129.284 16.178 129.817 15.6638L128.429 14.2242C128.066 14.574 127.687 14.8181 127.293 14.9736L128.026 16.8344ZM128.388 15.6219L130.38 17.7819L131.85 16.4261L129.858 14.2661L128.388 15.6219ZM130.362 16.4461C129.384 17.5658 127.917 18.192 125.787 18.192V20.192C128.33 20.192 130.414 19.4262 131.868 17.7619L130.362 16.4461ZM125.787 18.192C124.461 18.192 123.331 17.9377 122.37 17.4576L121.476 19.2464C122.756 19.8863 124.201 20.192 125.787 20.192V18.192ZM122.381 17.4627C121.414 16.9654 120.693 16.2975 120.188 15.4595L118.475 16.4925C119.186 17.6705 120.193 18.5866 121.466 19.2413L122.381 17.4627ZM120.188 15.4595C119.682 14.6209 119.419 13.6584 119.419 12.544H117.419C117.419 13.9896 117.765 15.3151 118.475 16.4925L120.188 15.4595ZM119.419 12.544C119.419 11.4431 119.675 10.4845 120.17 9.64242L118.445 8.62958C117.756 9.80352 117.419 11.1169 117.419 12.544H119.419ZM120.167 9.64654C120.683 8.77721 121.375 8.1137 122.253 7.64047L121.305 5.87953C120.104 6.5263 119.147 7.44679 118.447 8.62546L120.167 9.64654ZM122.258 7.63789C123.156 7.14816 124.165 6.896 125.307 6.896V4.896C123.857 4.896 122.515 5.21984 121.3 5.8821L122.258 7.63789ZM125.307 6.896C126.423 6.896 127.403 7.13464 128.27 7.59512L129.208 5.82888C128.027 5.20136 126.72 4.896 125.307 4.896V6.896ZM128.27 7.59512C129.123 8.0481 129.784 8.69467 130.268 9.55426L132.011 8.57374C131.342 7.38533 130.404 6.4639 129.208 5.82888L128.27 7.59512ZM130.277 9.57042C130.766 10.4031 131.027 11.399 131.027 12.592H133.027C133.027 11.097 132.697 9.74089 132.002 8.55758L130.277 9.57042ZM125.331 7.728C124.282 7.728 123.334 8.03044 122.555 8.67978L123.835 10.2162C124.208 9.90556 124.685 9.728 125.331 9.728V7.728ZM122.555 8.67978C121.769 9.33523 121.311 10.2227 121.151 11.2639L123.128 11.5681C123.223 10.9453 123.47 10.5208 123.835 10.2162L122.555 8.67978ZM122.139 12.416H128.499V10.416H122.139V12.416ZM129.487 11.261C129.326 10.2314 128.865 9.35541 128.083 8.70378L126.803 10.2402C127.173 10.5486 127.417 10.9686 127.511 11.571L129.487 11.261ZM128.096 8.71423C127.321 8.04675 126.378 7.728 125.331 7.728V9.728C125.948 9.728 126.414 9.90524 126.791 10.2298L128.096 8.71423ZM137.736 7.792H136.736V10.8995L138.548 8.37521L137.736 7.792ZM139.536 6.376L139.151 5.4529L139.144 5.45584L139.536 6.376ZM142.176 5.896H143.176V4.896H142.176V5.896ZM142.176 9.352L142.099 10.3491L143.176 10.4319V9.352H142.176ZM138.816 10.216L139.514 10.9325L139.523 10.9231L138.816 10.216ZM137.904 19V20H138.904V19H137.904ZM134.16 19H133.16V20H134.16V19ZM134.16 6.088V5.088H133.16V6.088H134.16ZM137.736 6.088H138.736V5.088H137.736V6.088ZM138.548 8.37521C138.883 7.90952 139.333 7.54924 139.927 7.29615L139.144 5.45584C138.235 5.84276 137.485 6.42648 136.924 7.20879L138.548 8.37521ZM139.92 7.29908C140.546 7.03863 141.291 6.896 142.176 6.896V4.896C141.077 4.896 140.062 5.07337 139.151 5.45292L139.92 7.29908ZM141.176 5.896V9.352H143.176V5.896H141.176ZM142.253 8.35495C141.842 8.32336 141.524 8.304 141.336 8.304V10.304C141.435 10.304 141.678 10.3166 142.099 10.3491L142.253 8.35495ZM141.336 8.304C140.068 8.304 138.948 8.66953 138.109 9.50889L139.523 10.9231C139.9 10.5465 140.46 10.304 141.336 10.304V8.304ZM138.118 9.49953C137.248 10.3464 136.904 11.5476 136.904 12.904H138.904C138.904 11.8604 139.167 11.2696 139.513 10.9325L138.118 9.49953ZM136.904 12.904V19H138.904V12.904H136.904ZM137.904 18H134.16V20H137.904V18ZM135.16 19V6.088H133.16V19H135.16ZM134.16 7.088H137.736V5.088H134.16V7.088ZM136.736 6.088V7.792H138.736V6.088H136.736ZM157.303 6.088L158.225 6.47674L158.811 5.088H157.303V6.088ZM151.855 19V20H152.519L152.777 19.3887L151.855 19ZM147.991 19L147.069 19.3873L147.327 20H147.991V19ZM142.567 6.088V5.088H141.063L141.645 6.47529L142.567 6.088ZM146.431 6.088L147.358 5.71094L147.104 5.088H146.431V6.088ZM150.007 14.872L149.081 15.2491L149.992 17.4867L150.929 15.2598L150.007 14.872ZM153.703 6.088V5.088H153.039L152.782 5.70017L153.703 6.088ZM156.382 5.69925L150.934 18.6113L152.777 19.3887L158.225 6.47674L156.382 5.69925ZM151.855 18H147.991V20H151.855V18ZM148.913 18.6127L143.489 5.70071L141.645 6.47529L147.069 19.3873L148.913 18.6127ZM142.567 7.088H146.431V5.088H142.567V7.088ZM145.505 6.46505L149.081 15.2491L150.934 14.4949L147.358 5.71094L145.505 6.46505ZM150.929 15.2598L154.625 6.47583L152.782 5.70017L149.086 14.4842L150.929 15.2598ZM153.703 7.088H157.303V5.088H153.703V7.088ZM158.471 6.088V5.088H157.471V6.088H158.471ZM162.215 6.088H163.215V5.088H162.215V6.088ZM162.215 19V20H163.215V19H162.215ZM158.471 19H157.471V20H158.471V19ZM158.663 3.688L157.984 4.42176L157.984 4.42176L158.663 3.688ZM158.663 0.711999L159.343 1.44576L159.343 1.44576L158.663 0.711999ZM162.023 0.688L161.359 1.43541L161.359 1.43541L162.023 0.688ZM162.023 3.688L162.703 4.42176L162.71 4.41511L162.717 4.40832L162.023 3.688ZM158.471 7.088H162.215V5.088H158.471V7.088ZM161.215 6.088V19H163.215V6.088H161.215ZM162.215 18H158.471V20H162.215V18ZM159.471 19V6.088H157.471V19H159.471ZM160.343 3.288C159.862 3.288 159.559 3.15461 159.343 2.95424L157.984 4.42176C158.631 5.02139 159.448 5.288 160.343 5.288V3.288ZM159.343 2.95424C159.116 2.74469 159.015 2.51519 159.015 2.2H157.015C157.015 3.06881 157.346 3.83131 157.984 4.42176L159.343 2.95424ZM159.015 2.2C159.015 1.88481 159.116 1.65531 159.343 1.44576L157.984 -0.0217616C157.346 0.568684 157.015 1.33119 157.015 2.2H159.015ZM159.343 1.44576C159.559 1.24539 159.862 1.112 160.343 1.112V-0.888001C159.448 -0.888001 158.631 -0.621392 157.984 -0.0217608L159.343 1.44576ZM160.343 1.112C160.835 1.112 161.143 1.24405 161.359 1.43541L162.687 -0.059409C162.039 -0.636053 161.227 -0.888001 160.343 -0.888001V1.112ZM161.359 1.43541C161.578 1.6304 161.671 1.83877 161.671 2.128H163.671C163.671 1.26523 163.332 0.513603 162.687 -0.0594097L161.359 1.43541ZM161.671 2.128C161.671 2.49258 161.557 2.74858 161.329 2.96768L162.717 4.40832C163.353 3.79542 163.671 3.01142 163.671 2.128H161.671ZM161.344 2.95424C161.127 3.15461 160.824 3.288 160.343 3.288V5.288C161.238 5.288 162.055 5.02139 162.703 4.42176L161.344 2.95424ZM167.85 18.352L167.382 19.2358L167.39 19.2399L167.397 19.2438L167.85 18.352ZM165.282 15.976L164.426 16.4925L164.432 16.5024L165.282 15.976ZM165.282 9.112L164.432 8.58561L164.426 8.59551L165.282 9.112ZM167.85 6.76L168.308 7.64915L168.312 7.64658L167.85 6.76ZM175.122 6.76L174.626 7.62824L174.634 7.63288L174.642 7.63737L175.122 6.76ZM177.354 9.184L177.827 10.0649L178.641 9.62767L178.269 8.78173L177.354 9.184ZM174.45 10.744L173.58 11.2376L174.062 12.0873L174.923 11.6249L174.45 10.744ZM169.122 9.928L168.415 9.22089L168.415 9.22089L169.122 9.928ZM174.45 14.344L174.929 13.4661L174.057 12.9904L173.575 13.8594L174.45 14.344ZM177.354 15.928L178.265 16.3407L178.648 15.4948L177.833 15.0501L177.354 15.928ZM175.122 18.328L174.632 17.4564L174.626 17.4598L175.122 18.328ZM171.57 18.192C170.333 18.192 169.251 17.9414 168.302 17.4602L167.397 19.2438C168.657 19.8826 170.054 20.192 171.57 20.192V18.192ZM168.318 17.4682C167.38 16.972 166.659 16.3007 166.132 15.4496L164.432 16.5024C165.153 17.6673 166.143 18.58 167.382 19.2358L168.318 17.4682ZM166.138 15.4595C165.632 14.6209 165.37 13.6584 165.37 12.544H163.37C163.37 13.9896 163.715 15.3151 164.426 16.4925L166.138 15.4595ZM165.37 12.544C165.37 11.4296 165.632 10.4671 166.138 9.62849L164.426 8.59551C163.715 9.77289 163.37 11.0984 163.37 12.544H165.37ZM166.132 9.63835C166.657 8.7898 167.375 8.12888 168.308 7.64913L167.392 5.87086C166.148 6.51112 165.154 7.4182 164.432 8.58564L166.132 9.63835ZM168.312 7.64658C169.259 7.15266 170.338 6.896 171.57 6.896V4.896C170.05 4.896 168.649 5.21533 167.387 5.87341L168.312 7.64658ZM171.57 6.896C172.786 6.896 173.793 7.15237 174.626 7.62824L175.618 5.89176C174.435 5.21563 173.074 4.896 171.57 4.896V6.896ZM174.642 7.63737C175.475 8.0928 176.064 8.73497 176.438 9.58627L178.269 8.78173C177.715 7.52103 176.817 6.5472 175.602 5.88263L174.642 7.63737ZM176.881 8.30306L173.977 9.86306L174.923 11.6249L177.827 10.0649L176.881 8.30306ZM175.32 10.2504C174.487 8.78291 173.202 7.968 171.546 7.968V9.968C172.417 9.968 173.069 10.3371 173.58 11.2376L175.32 10.2504ZM171.546 7.968C170.328 7.968 169.258 8.37773 168.415 9.22089L169.829 10.6351C170.266 10.1983 170.812 9.968 171.546 9.968V7.968ZM168.415 9.22089C167.547 10.0882 167.162 11.2368 167.162 12.544H169.162C169.162 11.6432 169.416 11.0478 169.829 10.6351L168.415 9.22089ZM167.162 12.544C167.162 13.8512 167.547 14.9998 168.415 15.8671L169.829 14.4529C169.416 14.0402 169.162 13.4448 169.162 12.544H167.162ZM168.415 15.8671C169.258 16.7103 170.328 17.12 171.546 17.12V15.12C170.812 15.12 170.266 14.8897 169.829 14.4529L168.415 15.8671ZM171.546 17.12C172.346 17.12 173.093 16.933 173.754 16.5291C174.411 16.1269 174.929 15.5427 175.325 14.8286L173.575 13.8594C173.315 14.3293 173.02 14.6331 172.71 14.8229C172.403 15.011 172.026 15.12 171.546 15.12V17.12ZM173.971 15.2219L176.875 16.8059L177.833 15.0501L174.929 13.4661L173.971 15.2219ZM176.443 15.5153C176.071 16.3364 175.479 16.9797 174.632 17.4564L175.612 19.1996C176.813 18.5243 177.709 17.5676 178.265 16.3407L176.443 15.5153ZM174.626 17.4598C173.793 17.9356 172.786 18.192 171.57 18.192V20.192C173.074 20.192 174.435 19.8724 175.618 19.1962L174.626 17.4598ZM191.562 13.6V14.6H192.488L192.559 13.6767L191.562 13.6ZM181.794 13.6V12.6H180.55L180.817 13.8149L181.794 13.6ZM183.042 15.496L183.619 14.6796L183.619 14.6796L183.042 15.496ZM187.266 15.904L187.617 16.8403L187.624 16.8374L187.632 16.8344L187.266 15.904ZM188.73 14.944L189.465 14.2661L188.771 13.5144L188.035 14.2242L188.73 14.944ZM190.722 17.104L191.475 17.7619L192.065 17.0859L191.457 16.4261L190.722 17.104ZM181.53 18.352L181.072 19.2413L181.082 19.2464L181.53 18.352ZM178.938 15.976L178.081 16.4925L178.081 16.4925L178.938 15.976ZM178.914 9.136L178.054 8.62546L178.051 8.62958L178.914 9.136ZM181.386 6.76L181.86 7.64048L181.864 7.63789L181.386 6.76ZM188.346 6.712L188.815 5.82888L188.815 5.82888L188.346 6.712ZM190.746 9.064L189.874 9.55426L189.879 9.56238L189.883 9.57042L190.746 9.064ZM182.802 9.448L182.161 8.67978L182.161 8.67978L182.802 9.448ZM181.746 11.416L180.757 11.2639L180.58 12.416H181.746V11.416ZM188.106 11.416V12.416H189.275L189.093 11.261L188.106 11.416ZM187.05 9.472L186.397 10.2298L186.403 10.235L186.409 10.2402L187.05 9.472ZM190.634 12.592C190.634 12.5657 190.635 12.5599 190.631 12.6196C190.628 12.6633 190.624 12.7259 190.618 12.8088C190.606 12.974 190.588 13.2119 190.564 13.5233L192.559 13.6767C192.604 13.0897 192.634 12.6907 192.634 12.592H190.634ZM191.562 12.6H181.794V14.6H191.562V12.6ZM180.817 13.8149C181.045 14.8529 181.6 15.7015 182.464 16.3124L183.619 14.6796C183.171 14.3625 182.894 13.9471 182.77 13.3851L180.817 13.8149ZM182.464 16.3124C183.322 16.9195 184.352 17.192 185.49 17.192V15.192C184.675 15.192 184.073 15.0005 183.619 14.6796L182.464 16.3124ZM185.49 17.192C186.255 17.192 186.97 17.0828 187.617 16.8403L186.914 14.9677C186.537 15.1092 186.068 15.192 185.49 15.192V17.192ZM187.632 16.8344C188.293 16.5739 188.89 16.178 189.424 15.6638L188.035 14.2242C187.673 14.574 187.294 14.8181 186.899 14.9736L187.632 16.8344ZM187.994 15.6219L189.986 17.7819L191.457 16.4261L189.465 14.2661L187.994 15.6219ZM189.968 16.4461C188.99 17.5658 187.523 18.192 185.394 18.192V20.192C187.936 20.192 190.021 19.4262 191.475 17.7619L189.968 16.4461ZM185.394 18.192C184.068 18.192 182.937 17.9377 181.977 17.4576L181.082 19.2464C182.362 19.8863 183.808 20.192 185.394 20.192V18.192ZM181.987 17.4627C181.02 16.9654 180.299 16.2975 179.794 15.4595L178.081 16.4925C178.792 17.6705 179.799 18.5866 181.072 19.2413L181.987 17.4627ZM179.794 15.4595C179.288 14.6209 179.026 13.6584 179.026 12.544H177.026C177.026 13.9896 177.371 15.3151 178.081 16.4925L179.794 15.4595ZM179.026 12.544C179.026 11.4431 179.281 10.4845 179.776 9.64242L178.051 8.62958C177.362 9.80352 177.026 11.1169 177.026 12.544H179.026ZM179.773 9.64654C180.29 8.77721 180.981 8.1137 181.86 7.64047L180.911 5.87953C179.71 6.5263 178.753 7.44679 178.054 8.62546L179.773 9.64654ZM181.864 7.63789C182.762 7.14816 183.772 6.896 184.914 6.896V4.896C183.464 4.896 182.121 5.21984 180.907 5.8821L181.864 7.63789ZM184.914 6.896C186.029 6.896 187.01 7.13464 187.876 7.59512L188.815 5.82888C187.633 5.20136 186.326 4.896 184.914 4.896V6.896ZM187.876 7.59512C188.729 8.0481 189.39 8.69467 189.874 9.55426L191.617 8.57374C190.949 7.38533 190.01 6.4639 188.815 5.82888L187.876 7.59512ZM189.883 9.57042C190.372 10.4031 190.634 11.399 190.634 12.592H192.634C192.634 11.097 192.303 9.74089 191.608 8.55758L189.883 9.57042ZM184.938 7.728C183.888 7.728 182.941 8.03044 182.161 8.67978L183.442 10.2162C183.814 9.90556 184.291 9.728 184.938 9.728V7.728ZM182.161 8.67978C181.375 9.33523 180.917 10.2227 180.757 11.2639L182.734 11.5681C182.83 10.9453 183.076 10.5208 183.442 10.2162L182.161 8.67978ZM181.746 12.416H188.106V10.416H181.746V12.416ZM189.093 11.261C188.932 10.2314 188.472 9.35541 187.69 8.70378L186.409 10.2402C186.779 10.5486 187.023 10.9686 187.118 11.571L189.093 11.261ZM187.702 8.71423C186.927 8.04675 185.985 7.728 184.938 7.728V9.728C185.554 9.728 186.02 9.90524 186.397 10.2298L187.702 8.71423Z" fill="#FF0000"/>
</g>
<defs>
<filter id="filter0_bddd_108_287" x="-5.06396" y="-9.88818" width="206.698" height="39.1763" filterUnits="userSpaceOnUse" color-interpolation-filters="sRGB">
<feFlood flood-opacity="0" result="BackgroundImageFix"/>
<feGaussianBlur in="BackgroundImage" stdDeviation="5"/>
<feComposite in2="SourceAlpha" operator="in" result="effect1_backgroundBlur_108_287"/>
<feColorMatrix in="SourceAlpha" type="matrix" values="0 0 0 0 0 0 0 0 0 0 0 0 0 0 0 0 0 0 127 0" result="hardAlpha"/>
<feOffset dy="4"/>
<feGaussianBlur stdDeviation="2"/>
<feComposite in2="hardAlpha" operator="out"/>
<feColorMatrix type="matrix" values="0 0 0 0 0 0 0 0 0 0 0 0 0 0 0 0 0 0 0.25 0"/>
<feBlend mode="normal" in2="effect1_backgroundBlur_108_287" result="effect2_dropShadow_108_287"/>
<feColorMatrix in="SourceAlpha" type="matrix" values="0 0 0 0 0 0 0 0 0 0 0 0 0 0 0 0 0 0 127 0" result="hardAlpha"/>
<feOffset dy="4"/>
<feGaussianBlur stdDeviation="2"/>
<feComposite in2="hardAlpha" operator="out"/>
<feColorMatrix type="matrix" values="0 0 0 0 0 0 0 0 0 0 0 0 0 0 0 0 0 0 0.25 0"/>
<feBlend mode="normal" in2="effect2_dropShadow_108_287" result="effect3_dropShadow_108_287"/>
<feColorMatrix in="SourceAlpha" type="matrix" values="0 0 0 0 0 0 0 0 0 0 0 0 0 0 0 0 0 0 127 0" result="hardAlpha"/>
<feOffset dy="4"/>
<feGaussianBlur stdDeviation="2"/>
<feComposite in2="hardAlpha" operator="out"/>
<feColorMatrix type="matrix" values="0 0 0 0 0 0 0 0 0 0 0 0 0 0 0 0 0 0 0.25 0"/>
<feBlend mode="normal" in2="effect3_dropShadow_108_287" result="effect4_dropShadow_108_287"/>
<feBlend mode="normal" in="SourceGraphic" in2="effect4_dropShadow_108_287" result="shape"/>
</filter>
</defs>
</svg>
