<svg width="327" height="51" viewBox="0 0 327 51" fill="none" xmlns="http://www.w3.org/2000/svg">
<path d="M57.4229 36.32C55.6949 36.32 54.0735 35.9893 52.5589 35.328C51.0655 34.6667 49.7429 33.7493 48.5909 32.576C47.4602 31.3813 46.5749 30.016 45.9349 28.48C45.2949 26.9227 44.9749 25.2587 44.9749 23.488C44.9749 21.7387 45.2842 20.096 45.9029 18.56C46.5429 17.0027 47.4282 15.6373 48.5589 14.464C49.7109 13.2907 51.0335 12.3733 52.5269 11.712C54.0415 11.0293 55.6735 10.688 57.4229 10.688C58.9589 10.688 60.3562 10.912 61.6149 11.36C62.8735 11.808 64.0895 12.5227 65.2629 13.504C65.4549 13.6533 65.5615 13.8347 65.5829 14.048C65.6255 14.24 65.6042 14.432 65.5189 14.624C65.4335 14.7947 65.3055 14.9227 65.1349 15.008C65.0922 15.1787 64.9855 15.3067 64.8149 15.392C64.6442 15.4773 64.4415 15.5093 64.2069 15.488C63.9935 15.4667 63.7802 15.3707 63.5669 15.2C62.7349 14.4747 61.8282 13.9413 60.8469 13.6C59.8655 13.2373 58.7242 13.056 57.4229 13.056C56.0362 13.056 54.7349 13.3333 53.5189 13.888C52.3242 14.4427 51.2682 15.2 50.3509 16.16C49.4335 17.12 48.7082 18.2293 48.1749 19.488C47.6629 20.7467 47.4069 22.08 47.4069 23.488C47.4069 24.9387 47.6629 26.2933 48.1749 27.552C48.7082 28.8107 49.4335 29.92 50.3509 30.88C51.2682 31.84 52.3242 32.5973 53.5189 33.152C54.7349 33.6853 56.0362 33.952 57.4229 33.952C58.5962 33.952 59.7055 33.76 60.7509 33.376C61.7962 32.992 62.7882 32.4373 63.7269 31.712C63.9829 31.4987 64.2495 31.4133 64.5269 31.456C64.8255 31.4987 65.0815 31.6267 65.2949 31.84C65.5082 32.0533 65.6149 32.3307 65.6149 32.672C65.6149 32.8427 65.5935 33.0027 65.5509 33.152C65.5082 33.28 65.4122 33.4187 65.2629 33.568C64.1749 34.5707 62.9589 35.2853 61.6149 35.712C60.2709 36.1173 58.8735 36.32 57.4229 36.32ZM65.6149 32.672L63.1829 32.16V25.728H58.1909C57.8282 25.728 57.5295 25.6213 57.2949 25.408C57.0602 25.1947 56.9429 24.928 56.9429 24.608C56.9429 24.288 57.0602 24.032 57.2949 23.84C57.5295 23.6267 57.8282 23.52 58.1909 23.52H64.3669C64.7295 23.52 65.0282 23.6373 65.2629 23.872C65.4975 24.0853 65.6149 24.3733 65.6149 24.736V32.672ZM76.6081 36.16C74.8801 36.16 73.3441 35.7867 72.0001 35.04C70.6775 34.272 69.6321 33.216 68.8641 31.872C68.1175 30.528 67.7441 28.992 67.7441 27.264C67.7441 25.5147 68.0961 23.9787 68.8001 22.656C69.5255 21.312 70.5175 20.256 71.7761 19.488C73.0348 18.72 74.4855 18.336 76.1281 18.336C77.7495 18.336 79.1575 18.7093 80.3521 19.456C81.5681 20.1813 82.5068 21.1947 83.1681 22.496C83.8295 23.7973 84.1601 25.28 84.1601 26.944C84.1601 27.2853 84.0535 27.5627 83.8401 27.776C83.6268 27.968 83.3495 28.064 83.0081 28.064H69.4081V26.016H83.2641L81.8881 27.008C81.9095 25.7707 81.6855 24.6613 81.2161 23.68C80.7468 22.6987 80.0748 21.9307 79.2001 21.376C78.3468 20.8213 77.3228 20.544 76.1281 20.544C74.9121 20.544 73.8455 20.832 72.9281 21.408C72.0108 21.984 71.2961 22.784 70.7841 23.808C70.2935 24.8107 70.0481 25.9627 70.0481 27.264C70.0481 28.5653 70.3255 29.7173 70.8801 30.72C71.4561 31.7227 72.2348 32.512 73.2161 33.088C74.1975 33.664 75.3281 33.952 76.6081 33.952C77.3761 33.952 78.1441 33.824 78.9121 33.568C79.7015 33.2907 80.3308 32.9493 80.8001 32.544C81.0348 32.352 81.3015 32.256 81.6001 32.256C81.8988 32.2347 82.1548 32.3093 82.3681 32.48C82.6455 32.736 82.7841 33.0133 82.7841 33.312C82.8055 33.6107 82.6881 33.8667 82.4321 34.08C81.7281 34.6773 80.8321 35.1787 79.7441 35.584C78.6561 35.968 77.6108 36.16 76.6081 36.16ZM94.6964 36C93.5657 36 92.5524 35.7333 91.6564 35.2C90.7817 34.6667 90.0884 33.9413 89.5764 33.024C89.0644 32.0853 88.8084 31.0187 88.8084 29.824V14.176C88.8084 13.8133 88.915 13.5147 89.1284 13.28C89.363 13.0453 89.6617 12.928 90.0244 12.928C90.387 12.928 90.6857 13.0453 90.9204 13.28C91.155 13.5147 91.2724 13.8133 91.2724 14.176V29.824C91.2724 30.912 91.5924 31.808 92.2324 32.512C92.8724 33.1947 93.6937 33.536 94.6964 33.536H95.5604C95.9017 33.536 96.179 33.6533 96.3924 33.888C96.6057 34.1227 96.7124 34.4213 96.7124 34.784C96.7124 35.1467 96.5844 35.4453 96.3284 35.68C96.0724 35.8933 95.7524 36 95.3684 36H94.6964ZM86.7284 21.28C86.4084 21.28 86.1417 21.184 85.9284 20.992C85.715 20.7787 85.6084 20.5227 85.6084 20.224C85.6084 19.904 85.715 19.648 85.9284 19.456C86.1417 19.2427 86.4084 19.136 86.7284 19.136H94.8884C95.2084 19.136 95.475 19.2427 95.6884 19.456C95.9017 19.648 96.0084 19.904 96.0084 20.224C96.0084 20.5227 95.9017 20.7787 95.6884 20.992C95.475 21.184 95.2084 21.28 94.8884 21.28H86.7284ZM116.626 36C116.285 36 115.986 35.8827 115.73 35.648C115.496 35.392 115.378 35.0933 115.378 34.752V26.752L106.674 12.96C106.461 12.64 106.376 12.3307 106.418 12.032C106.482 11.7333 106.621 11.488 106.834 11.296C107.048 11.104 107.314 11.008 107.634 11.008C107.89 11.008 108.093 11.0613 108.242 11.168C108.413 11.2747 108.562 11.424 108.69 11.616L117.33 25.536H115.986L124.594 11.68C124.744 11.4453 124.904 11.2747 125.074 11.168C125.266 11.0613 125.49 11.008 125.746 11.008C126.045 11.008 126.29 11.1147 126.482 11.328C126.696 11.52 126.813 11.7653 126.834 12.064C126.877 12.3627 126.802 12.6613 126.61 12.96L117.874 26.752V34.752C117.874 35.0933 117.746 35.392 117.49 35.648C117.256 35.8827 116.968 36 116.626 36ZM134.189 36.16C132.482 36.16 130.957 35.776 129.613 35.008C128.269 34.24 127.213 33.184 126.445 31.84C125.677 30.496 125.293 28.9707 125.293 27.264C125.293 25.536 125.677 24 126.445 22.656C127.213 21.312 128.269 20.256 129.613 19.488C130.957 18.72 132.482 18.336 134.189 18.336C135.896 18.336 137.41 18.72 138.733 19.488C140.077 20.256 141.133 21.312 141.901 22.656C142.669 24 143.064 25.536 143.085 27.264C143.085 28.9707 142.69 30.496 141.901 31.84C141.133 33.184 140.077 34.24 138.733 35.008C137.41 35.776 135.896 36.16 134.189 36.16ZM134.189 33.92C135.426 33.92 136.536 33.632 137.517 33.056C138.498 32.48 139.266 31.6907 139.821 30.688C140.376 29.6853 140.653 28.544 140.653 27.264C140.653 25.984 140.376 24.8427 139.821 23.84C139.266 22.816 138.498 22.016 137.517 21.44C136.536 20.864 135.426 20.576 134.189 20.576C132.952 20.576 131.842 20.864 130.861 21.44C129.88 22.016 129.101 22.816 128.525 23.84C127.97 24.8427 127.693 25.984 127.693 27.264C127.693 28.544 127.97 29.6853 128.525 30.688C129.101 31.6907 129.88 32.48 130.861 33.056C131.842 33.632 132.952 33.92 134.189 33.92ZM155.013 36.192C153.498 36.192 152.144 35.8827 150.949 35.264C149.754 34.624 148.805 33.696 148.101 32.48C147.418 31.264 147.077 29.7813 147.077 28.032V19.712C147.077 19.3707 147.194 19.0827 147.429 18.848C147.664 18.6133 147.952 18.496 148.293 18.496C148.656 18.496 148.954 18.6133 149.189 18.848C149.424 19.0827 149.541 19.3707 149.541 19.712V28.032C149.541 29.3547 149.786 30.4427 150.277 31.296C150.789 32.1493 151.472 32.7893 152.325 33.216C153.2 33.6427 154.181 33.856 155.269 33.856C156.314 33.856 157.253 33.6533 158.085 33.248C158.938 32.8427 159.61 32.288 160.101 31.584C160.592 30.88 160.837 30.08 160.837 29.184H162.597C162.533 30.528 162.16 31.7333 161.477 32.8C160.816 33.8453 159.92 34.6773 158.789 35.296C157.658 35.8933 156.4 36.192 155.013 36.192ZM162.053 36C161.69 36 161.392 35.8933 161.157 35.68C160.944 35.4453 160.837 35.136 160.837 34.752V19.712C160.837 19.3493 160.944 19.0613 161.157 18.848C161.392 18.6133 161.69 18.496 162.053 18.496C162.416 18.496 162.714 18.6133 162.949 18.848C163.184 19.0613 163.301 19.3493 163.301 19.712V34.752C163.301 35.136 163.184 35.4453 162.949 35.68C162.714 35.8933 162.416 36 162.053 36ZM169.597 25.216C169.661 23.8933 170.003 22.7093 170.621 21.664C171.261 20.6187 172.083 19.7973 173.085 19.2C174.109 18.6027 175.24 18.304 176.477 18.304C177.459 18.304 178.216 18.4427 178.749 18.72C179.283 18.9973 179.485 19.4027 179.357 19.936C179.272 20.256 179.123 20.4693 178.909 20.576C178.717 20.6827 178.472 20.7253 178.173 20.704C177.896 20.6827 177.576 20.6613 177.213 20.64C176.019 20.5333 174.952 20.6613 174.013 21.024C173.096 21.3653 172.36 21.8987 171.805 22.624C171.272 23.3493 171.005 24.2133 171.005 25.216H169.597ZM169.789 36C169.405 36 169.107 35.8933 168.893 35.68C168.68 35.4667 168.573 35.168 168.573 34.784V19.712C168.573 19.328 168.68 19.0293 168.893 18.816C169.107 18.6027 169.405 18.496 169.789 18.496C170.173 18.496 170.472 18.6027 170.685 18.816C170.899 19.0293 171.005 19.328 171.005 19.712V34.784C171.005 35.168 170.899 35.4667 170.685 35.68C170.472 35.8933 170.173 36 169.789 36ZM199.645 36.32C198.279 36.32 197.01 36.128 195.837 35.744C194.685 35.3387 193.682 34.7733 192.829 34.048C191.975 33.3227 191.325 32.48 190.877 31.52C190.706 31.1787 190.695 30.8693 190.845 30.592C191.015 30.2933 191.293 30.0907 191.677 29.984C191.975 29.8987 192.263 29.9307 192.541 30.08C192.839 30.2293 193.063 30.4533 193.213 30.752C193.533 31.3707 194.002 31.9253 194.621 32.416C195.239 32.9067 195.975 33.2907 196.829 33.568C197.682 33.824 198.621 33.952 199.645 33.952C200.775 33.952 201.778 33.7707 202.653 33.408C203.527 33.024 204.21 32.48 204.701 31.776C205.213 31.0507 205.469 30.176 205.469 29.152C205.469 27.8507 204.989 26.7307 204.029 25.792C203.069 24.8533 201.565 24.256 199.517 24C197.021 23.7013 195.069 22.9333 193.661 21.696C192.253 20.4373 191.549 18.9013 191.549 17.088C191.549 15.7867 191.89 14.656 192.573 13.696C193.277 12.736 194.237 12 195.453 11.488C196.669 10.9547 198.066 10.688 199.645 10.688C200.818 10.688 201.885 10.88 202.845 11.264C203.805 11.6267 204.637 12.1173 205.341 12.736C206.066 13.3333 206.653 13.9947 207.101 14.72C207.314 15.0613 207.378 15.392 207.293 15.712C207.229 16.032 207.047 16.2773 206.749 16.448C206.429 16.5973 206.098 16.6187 205.757 16.512C205.437 16.4053 205.191 16.2027 205.021 15.904C204.701 15.4133 204.295 14.9547 203.805 14.528C203.335 14.08 202.759 13.728 202.077 13.472C201.394 13.216 200.573 13.0773 199.613 13.056C197.927 13.056 196.573 13.4187 195.549 14.144C194.525 14.848 194.013 15.8827 194.013 17.248C194.013 17.9733 194.205 18.6453 194.589 19.264C194.973 19.8613 195.602 20.384 196.477 20.832C197.373 21.2587 198.567 21.5787 200.061 21.792C202.727 22.176 204.701 22.9973 205.981 24.256C207.282 25.4933 207.933 27.1147 207.933 29.12C207.933 30.272 207.719 31.296 207.293 32.192C206.887 33.088 206.301 33.8453 205.533 34.464C204.786 35.0613 203.901 35.52 202.877 35.84C201.874 36.16 200.797 36.32 199.645 36.32ZM220.288 36.16C218.56 36.16 217.024 35.7867 215.68 35.04C214.357 34.272 213.312 33.216 212.544 31.872C211.797 30.528 211.424 28.992 211.424 27.264C211.424 25.5147 211.776 23.9787 212.48 22.656C213.205 21.312 214.197 20.256 215.456 19.488C216.715 18.72 218.165 18.336 219.808 18.336C221.429 18.336 222.837 18.7093 224.032 19.456C225.248 20.1813 226.187 21.1947 226.848 22.496C227.509 23.7973 227.84 25.28 227.84 26.944C227.84 27.2853 227.733 27.5627 227.52 27.776C227.307 27.968 227.029 28.064 226.688 28.064H213.088V26.016H226.944L225.568 27.008C225.589 25.7707 225.365 24.6613 224.896 23.68C224.427 22.6987 223.755 21.9307 222.88 21.376C222.027 20.8213 221.003 20.544 219.808 20.544C218.592 20.544 217.525 20.832 216.608 21.408C215.691 21.984 214.976 22.784 214.464 23.808C213.973 24.8107 213.728 25.9627 213.728 27.264C213.728 28.5653 214.005 29.7173 214.56 30.72C215.136 31.7227 215.915 32.512 216.896 33.088C217.877 33.664 219.008 33.952 220.288 33.952C221.056 33.952 221.824 33.824 222.592 33.568C223.381 33.2907 224.011 32.9493 224.48 32.544C224.715 32.352 224.981 32.256 225.28 32.256C225.579 32.2347 225.835 32.3093 226.048 32.48C226.325 32.736 226.464 33.0133 226.464 33.312C226.485 33.6107 226.368 33.8667 226.112 34.08C225.408 34.6773 224.512 35.1787 223.424 35.584C222.336 35.968 221.291 36.16 220.288 36.16ZM232.552 25.216C232.616 23.8933 232.958 22.7093 233.576 21.664C234.216 20.6187 235.038 19.7973 236.04 19.2C237.064 18.6027 238.195 18.304 239.432 18.304C240.414 18.304 241.171 18.4427 241.704 18.72C242.238 18.9973 242.44 19.4027 242.312 19.936C242.227 20.256 242.078 20.4693 241.864 20.576C241.672 20.6827 241.427 20.7253 241.128 20.704C240.851 20.6827 240.531 20.6613 240.168 20.64C238.974 20.5333 237.907 20.6613 236.968 21.024C236.051 21.3653 235.315 21.8987 234.76 22.624C234.227 23.3493 233.96 24.2133 233.96 25.216H232.552ZM232.744 36C232.36 36 232.062 35.8933 231.848 35.68C231.635 35.4667 231.528 35.168 231.528 34.784V19.712C231.528 19.328 231.635 19.0293 231.848 18.816C232.062 18.6027 232.36 18.496 232.744 18.496C233.128 18.496 233.427 18.6027 233.64 18.816C233.854 19.0293 233.96 19.328 233.96 19.712V34.784C233.96 35.168 233.854 35.4667 233.64 35.68C233.427 35.8933 233.128 36 232.744 36ZM251.689 36C251.177 36 250.793 35.7227 250.537 35.168L243.433 20.096C243.305 19.8187 243.294 19.5413 243.401 19.264C243.507 18.9867 243.721 18.7733 244.041 18.624C244.339 18.4747 244.627 18.4533 244.905 18.56C245.182 18.6667 245.395 18.8587 245.545 19.136L252.361 33.888H251.049L257.769 19.136C257.897 18.8373 258.11 18.6453 258.409 18.56C258.729 18.4533 259.038 18.464 259.337 18.592C259.635 18.7413 259.838 18.9653 259.945 19.264C260.051 19.5413 260.041 19.808 259.913 20.064L252.905 35.168C252.649 35.7227 252.243 36 251.689 36ZM264.672 36C264.288 36 263.979 35.8933 263.744 35.68C263.531 35.4453 263.424 35.136 263.424 34.752V19.744C263.424 19.36 263.531 19.0613 263.744 18.848C263.979 18.6133 264.288 18.496 264.672 18.496C265.035 18.496 265.323 18.6133 265.536 18.848C265.771 19.0613 265.888 19.36 265.888 19.744V34.752C265.888 35.136 265.771 35.4453 265.536 35.68C265.323 35.8933 265.035 36 264.672 36ZM264.64 15.168C264.171 15.168 263.765 14.9973 263.424 14.656C263.083 14.3147 262.912 13.8987 262.912 13.408C262.912 12.8747 263.083 12.4587 263.424 12.16C263.787 11.84 264.203 11.68 264.672 11.68C265.12 11.68 265.515 11.84 265.856 12.16C266.219 12.4587 266.4 12.8747 266.4 13.408C266.4 13.8987 266.229 14.3147 265.888 14.656C265.547 14.9973 265.131 15.168 264.64 15.168ZM279.49 36.16C277.805 36.16 276.301 35.776 274.978 35.008C273.677 34.2187 272.642 33.152 271.874 31.808C271.127 30.464 270.754 28.9493 270.754 27.264C270.754 25.5573 271.117 24.032 271.842 22.688C272.567 21.344 273.559 20.288 274.818 19.52C276.077 18.7307 277.527 18.336 279.17 18.336C280.471 18.336 281.666 18.592 282.754 19.104C283.863 19.616 284.834 20.384 285.666 21.408C285.901 21.664 285.986 21.9413 285.922 22.24C285.858 22.5173 285.677 22.7627 285.378 22.976C285.143 23.1467 284.877 23.2107 284.578 23.168C284.301 23.104 284.055 22.944 283.842 22.688C282.605 21.28 281.047 20.576 279.17 20.576C277.975 20.576 276.919 20.864 276.002 21.44C275.106 22.016 274.402 22.8053 273.89 23.808C273.399 24.8107 273.154 25.9627 273.154 27.264C273.154 28.544 273.421 29.6853 273.954 30.688C274.487 31.6907 275.234 32.48 276.194 33.056C277.154 33.632 278.253 33.92 279.49 33.92C280.322 33.92 281.079 33.8133 281.762 33.6C282.466 33.3653 283.085 33.0133 283.618 32.544C283.874 32.3307 284.141 32.2133 284.418 32.192C284.695 32.1707 284.951 32.256 285.186 32.448C285.442 32.6827 285.581 32.9493 285.602 33.248C285.645 33.5467 285.549 33.8027 285.314 34.016C283.757 35.4453 281.815 36.16 279.49 36.16ZM298.169 36.16C296.441 36.16 294.905 35.7867 293.561 35.04C292.239 34.272 291.193 33.216 290.425 31.872C289.679 30.528 289.305 28.992 289.305 27.264C289.305 25.5147 289.657 23.9787 290.361 22.656C291.087 21.312 292.079 20.256 293.337 19.488C294.596 18.72 296.047 18.336 297.689 18.336C299.311 18.336 300.719 18.7093 301.913 19.456C303.129 20.1813 304.068 21.1947 304.729 22.496C305.391 23.7973 305.721 25.28 305.721 26.944C305.721 27.2853 305.615 27.5627 305.401 27.776C305.188 27.968 304.911 28.064 304.569 28.064H290.969V26.016H304.825L303.449 27.008C303.471 25.7707 303.247 24.6613 302.777 23.68C302.308 22.6987 301.636 21.9307 300.761 21.376C299.908 20.8213 298.884 20.544 297.689 20.544C296.473 20.544 295.407 20.832 294.489 21.408C293.572 21.984 292.857 22.784 292.345 23.808C291.855 24.8107 291.609 25.9627 291.609 27.264C291.609 28.5653 291.887 29.7173 292.441 30.72C293.017 31.7227 293.796 32.512 294.777 33.088C295.759 33.664 296.889 33.952 298.169 33.952C298.937 33.952 299.705 33.824 300.473 33.568C301.263 33.2907 301.892 32.9493 302.361 32.544C302.596 32.352 302.863 32.256 303.161 32.256C303.46 32.2347 303.716 32.3093 303.929 32.48C304.207 32.736 304.345 33.0133 304.345 33.312C304.367 33.6107 304.249 33.8667 303.993 34.08C303.289 34.6773 302.393 35.1787 301.305 35.584C300.217 35.968 299.172 36.16 298.169 36.16Z" fill="black"/>
<path fill-rule="evenodd" clip-rule="evenodd" d="M10.0749 11.5062V38.8334L0.00110075 27.3272V0.000156865L0.000976562 1.50204e-05H0.00110075V0L0.0011139 1.50204e-05H23.9263L34.0001 11.5062H10.0749Z" fill="url(#paint0_linear_0_119)"/>
<path fill-rule="evenodd" clip-rule="evenodd" d="M23.6616 27.019L23.6616 -2.55108e-05L33.6243 11.3764V38.3952L33.6245 38.3954H33.6243V38.3954L33.6243 38.3954H9.96306L0.000345409 27.019L23.6616 27.019Z" fill="black"/>
<defs>
<linearGradient id="paint0_linear_0_119" x1="23.9263" y1="-3.01116e-07" x2="6.60668" y2="37.2196" gradientUnits="userSpaceOnUse">
<stop stop-color="#FF00D6"/>
<stop offset="1" stop-color="#FF4D00"/>
</linearGradient>
</defs>
</svg>
