<svg xmlns="http://www.w3.org/2000/svg" viewBox="0 0 32 32"><g transform="translate(597 -1096.862)" fill="#9ae45f" class="color000000 svgShape"><path fill="none" stroke="#d45985" stroke-linecap="round" stroke-linejoin="round" d="M-568 1105.3622l-26.5 0 0 0 0 0M-568 1111.3622l-12 0m-4.53724 0l-9.96276 0 0 0 0 0M-568 1117.3622l-5.4666 0m-4.11006 0l-16.92334 0 0 0 0 0M-588.5 1102.8622l0 20 0 0 0 0M-582.5 1102.8622l0 6m0 5l0 9 0 0 0 0M-576.5 1102.8622l0 12m0 4.4375l0 3.5625 0 0 0 0M-570.5 1102.8622l0 20 0 0 0 0M-594.5 1118.5341l0-15.2174c0-.5288.46315-.9545 1.03846-.9545l24.92308 0c.57531 0 1.03846.4257 1.03846.9545l0 2.0767m0 3.9844l0 13.0299c0 .5288-.46315.9545-1.03846.9545l-24.92308 0c-.57531 0-1.03846-.4257-1.03846-.9545" class="colorStroke373449 svgStroke"></path><path fill="none" stroke="#d45985" stroke-linecap="round" stroke-linejoin="round" d="m -591.53125,1119.3935 c 2.85501,-2.855 4.96465,-4.9647 7.10937,-7.1094 m 3.92006,-0.9979 4.11454,4.1823 m 1.78236,0 5.60492,-6.6063" class="colorStroke373449 svgStroke"></path><circle cx="-593.5" cy="1120.362" r="2" fill="#d85b53" stroke="#d45985" stroke-linecap="round" stroke-linejoin="round" class="colorff5a67 svgShape colorStroke373449 svgStroke"></circle><circle cx="-582.5" cy="1111.362" r="2" fill="#26d7fe" stroke="#d45985" stroke-linecap="round" stroke-linejoin="round" class="color00d1b6 svgShape colorStroke373449 svgStroke"></circle><circle cx="-575.5" cy="1117.362" r="2" fill="#d85b53" stroke="#d45985" stroke-linecap="round" stroke-linejoin="round" class="colorff5a67 svgShape colorStroke373449 svgStroke"></circle><circle cx="-567.5" cy="1107.362" r="2" fill="#26d7fe" stroke="#d45985" stroke-linecap="round" stroke-linejoin="round" class="color00d1b6 svgShape colorStroke373449 svgStroke"></circle></g></svg>