<svg xmlns="http://www.w3.org/2000/svg" width="32" height="32" viewBox="0 0 32 32"><g fill="#1C1C1C"><path d="M32 2a2 2 0 00-2-2H2a2 2 0 00-2 2v11a2 2 0 002 2h28a2 2 0 002-2V2zm-1 10a2 2 0 01-2 2H3a2 2 0 01-2-2V3a2 2 0 012-2h26a2 2 0 012 2v9zM15 19a2 2 0 00-2-2H2a2 2 0 00-2 2v11a2 2 0 002 2h11a2 2 0 002-2V19zm-1 10a2 2 0 01-2 2H3a2 2 0 01-2-2v-9a2 2 0 012-2h9a2 2 0 012 2v9zM32 19a2 2 0 00-2-2H19a2 2 0 00-2 2v11a2 2 0 002 2h11a2 2 0 002-2V19zm-1 10a2 2 0 01-2 2h-9a2 2 0 01-2-2v-9a2 2 0 012-2h9a2 2 0 012 2v9z"/></g></svg>