<svg xmlns="http://www.w3.org/2000/svg" enable-background="new 0 0 32 32" viewBox="0 0 32 32"><path d="M7.3125 1.44629H2c-.82861 0-1.5.67188-1.5 1.5v5.3125c0 .82813.67139 1.5 1.5 1.5h5.3125c.82861 0 1.5-.67188 1.5-1.5v-5.3125C8.8125 2.11816 8.14111 1.44629 7.3125 1.44629zM5.8125 6.75879H3.5v-2.3125h2.3125V6.75879zM12.83057 7.10254H30c.82813 0 1.5-.67188 1.5-1.5s-.67188-1.5-1.5-1.5H12.83057c-.82861 0-1.5.67188-1.5 1.5S12.00195 7.10254 12.83057 7.10254zM7.3125 11.84375H2c-.82861 0-1.5.67188-1.5 1.5v5.3125c0 .82813.67139 1.5 1.5 1.5h5.3125c.82861 0 1.5-.67188 1.5-1.5v-5.3125C8.8125 12.51563 8.14111 11.84375 7.3125 11.84375zM5.8125 17.15625H3.5v-2.3125h2.3125V17.15625zM30 14.5H12.83057c-.82861 0-1.5.67188-1.5 1.5s.67139 1.5 1.5 1.5H30c.82813 0 1.5-.67188 1.5-1.5S30.82813 14.5 30 14.5zM7.3125 22.24121H2c-.82861 0-1.5.67188-1.5 1.5v5.3125c0 .82813.67139 1.5 1.5 1.5h5.3125c.82861 0 1.5-.67188 1.5-1.5v-5.3125C8.8125 22.91309 8.14111 22.24121 7.3125 22.24121zM5.8125 27.55371H3.5v-2.3125h2.3125V27.55371zM30 24.89746H12.83057c-.82861 0-1.5.67188-1.5 1.5s.67139 1.5 1.5 1.5H30c.82813 0 1.5-.67188 1.5-1.5S30.82813 24.89746 30 24.89746z"/></svg>